<svg width="186" height="33" viewBox="0 0 186 33" fill="none" xmlns="http://www.w3.org/2000/svg">
    <g id="Logo">
        <g id="log">
            <path id="Vector" d="M115.278 10.3012V12.0941C115.278 12.4311 115.005 12.6965 114.668 12.6821C114.159 12.6606 113.449 12.6391 113.019 12.6319C110.587 12.6319 109.246 14.0806 109.246 16.7126V23.2388C109.246 23.5616 108.981 23.8269 108.658 23.8269H106.528C106.206 23.8269 105.94 23.5616 105.94 23.2388V10.129C105.94 9.80631 106.206 9.54096 106.528 9.54096H108.558C108.881 9.54096 109.146 9.80631 109.146 10.129V10.9609C110.114 9.95691 111.67 9.41187 113.585 9.41187C113.901 9.41187 114.302 9.4549 114.582 9.49793C114.976 9.54813 115.278 9.89237 115.278 10.294V10.3012ZM93.4615 15.8162C93.3467 15.6656 93.361 15.4576 93.4901 15.3285L98.7326 10.1721C98.9693 9.94257 98.8043 9.54096 98.4744 9.54096H95.4193C95.2687 9.54096 95.1324 9.59833 95.0249 9.69873L89.1154 15.1205C88.8787 15.3357 88.4987 15.1707 88.4987 14.848V10.129C88.4987 9.80631 88.2333 9.54096 87.9106 9.54096H85.7806C85.4579 9.54096 85.1925 9.80631 85.1925 10.129V23.2317C85.1925 23.5544 85.4579 23.8198 85.7806 23.8198H87.9106C88.2405 23.8198 88.4987 23.5544 88.4987 23.2245L88.4771 20.1837C88.4771 20.0188 88.5417 19.861 88.6636 19.7462L90.4995 18.0394C90.6573 17.896 90.9012 17.9103 91.0374 18.0752L95.4767 23.5903C95.5914 23.7265 95.7564 23.8126 95.9357 23.8126H98.998C99.3064 23.8126 99.4785 23.4612 99.2848 23.2173L93.4471 15.809L93.4615 15.8162ZM76.063 9.54096H73.933C73.6103 9.54096 73.3449 9.80631 73.3449 10.129V23.2317C73.3449 23.5544 73.6103 23.8198 73.933 23.8198H76.063C76.3857 23.8198 76.651 23.5544 76.651 23.2317V10.129C76.651 9.80631 76.3857 9.54096 76.063 9.54096ZM152.448 9.54096H139.575C139.253 9.54096 138.987 9.80631 138.987 10.129V12.0367C138.987 12.3594 139.253 12.6248 139.575 12.6248H143.95C144.151 12.6248 144.316 12.7897 144.316 12.9905V23.2317C144.316 23.5544 144.581 23.8198 144.904 23.8198H147.113C147.435 23.8198 147.701 23.5544 147.701 23.2317V12.9905C147.701 12.7897 147.866 12.6248 148.067 12.6248H152.441C152.764 12.6248 153.029 12.3594 153.029 12.0367V10.129C153.029 9.80631 152.764 9.54096 152.441 9.54096H152.448ZM134.534 16.6839C134.534 20.9081 131.428 23.9775 127.14 23.9775C122.851 23.9775 119.724 20.9081 119.724 16.6839C119.724 12.4598 122.844 9.41904 127.14 9.41904C131.435 9.41904 134.534 12.4742 134.534 16.6839ZM131.199 16.6839C131.199 14.138 129.571 12.424 127.14 12.424C124.708 12.424 123.059 14.1739 123.059 16.6839C123.059 19.194 124.737 20.9654 127.14 20.9654C129.542 20.9654 131.199 19.2012 131.199 16.6839ZM162.388 9.54096H160.258C159.936 9.54096 159.67 9.80631 159.67 10.129V23.2317C159.67 23.5544 159.936 23.8198 160.258 23.8198H162.388C162.711 23.8198 162.976 23.5544 162.976 23.2317V10.129C162.976 9.80631 162.711 9.54096 162.388 9.54096ZM58.8653 9.41904C56.9433 9.41904 55.2149 10.0788 54.0316 11.255C53.8738 11.4128 53.63 11.3984 53.4865 11.2335C52.4753 10.0645 50.9263 9.41904 49.0616 9.41904C47.3476 9.41904 45.8846 9.92823 44.8805 10.8677V10.1362C44.8805 9.81348 44.6152 9.54813 44.2925 9.54813H42.2629C41.9402 9.54813 41.6748 9.81348 41.6748 10.1362V23.2388C41.6748 23.5616 41.9402 23.8269 42.2629 23.8269H44.3929C44.7156 23.8269 44.9809 23.5616 44.9809 23.2388V16.4903C44.9809 13.9444 46.2862 12.4813 48.5596 12.4813C50.5605 12.4813 51.5789 13.6503 51.5789 15.9596V23.2388C51.5789 23.5616 51.8442 23.8269 52.167 23.8269H54.2969C54.6197 23.8269 54.885 23.5616 54.885 23.2388V16.4903C54.885 13.9444 56.1903 12.4813 58.4637 12.4813C60.4718 12.4813 61.483 13.6503 61.483 15.9596V23.2388C61.483 23.5616 61.7483 23.8269 62.071 23.8269H64.201C64.5237 23.8269 64.7891 23.5616 64.7891 23.2388V15.6799C64.7891 11.7068 62.6304 9.42621 58.8653 9.42621V9.41904ZM185.632 23.2245L179.794 15.8162C179.679 15.6656 179.694 15.4576 179.823 15.3285L185.065 10.1721C185.302 9.94257 185.137 9.54096 184.807 9.54096H181.752C181.601 9.54096 181.465 9.59833 181.357 9.69873L175.448 15.1205C175.211 15.3357 174.831 15.1707 174.831 14.848V10.129C174.831 9.80631 174.566 9.54096 174.243 9.54096H172.113C171.79 9.54096 171.525 9.80631 171.525 10.129V23.2317C171.525 23.5544 171.79 23.8198 172.113 23.8198H174.243C174.573 23.8198 174.831 23.5544 174.831 23.2245L174.81 20.1837C174.81 20.0188 174.874 19.861 174.996 19.7462L176.832 18.0394C176.99 17.896 177.234 17.9103 177.37 18.0824L181.809 23.5974C181.924 23.7337 182.089 23.8198 182.268 23.8198H185.331C185.639 23.8198 185.811 23.4683 185.617 23.2245H185.632Z" fill="currentColor"></path>
            <path id="Vector_2" d="M29.9991 10.6021C29.9991 9.33271 29.3106 8.16373 28.2062 7.54697L16.71 1.12832C15.6486 0.533073 14.3577 0.533073 13.2963 1.12832L1.79292 7.54697C0.688481 8.16373 0 9.33271 0 10.6021V22.8513C0 24.1279 0.695652 25.304 1.81443 25.9208L13.3178 32.2462C14.3649 32.8271 15.6414 32.8271 16.6885 32.2462L28.1918 25.9208C29.3106 25.304 30.0063 24.1279 30.0063 22.8513V10.6021H29.9991ZM8.62752 22.7581C8.62752 23.045 8.31914 23.2242 8.06813 23.088L6.14612 22.0266C5.74451 21.8043 5.50067 21.3883 5.50067 20.9293V15.1418C5.50067 14.8549 5.80906 14.6756 6.06006 14.8119L8.17571 15.9809C8.4554 16.1315 8.62752 16.4255 8.62752 16.7482V22.7581ZM24.4984 20.9006C24.4984 21.3524 24.2546 21.7756 23.853 21.9979L21.931 23.0593C21.68 23.1956 21.3716 23.0163 21.3716 22.7294V15.3282C21.3716 15.0414 21.0632 14.8621 20.8122 14.9983L17.2622 16.9562C16.8606 17.1785 16.6168 17.5945 16.6168 18.0535V25.6196C16.6168 25.8491 16.4948 26.0571 16.294 26.1646L15.5697 26.5662C15.1968 26.7742 14.7378 26.7742 14.3577 26.5662L13.6836 26.1933C13.4827 26.0857 13.3608 25.8706 13.3608 25.6483V18.0033C13.3608 17.5515 13.117 17.1283 12.7154 16.906L5.67997 13.019C5.55805 12.9544 5.48633 12.8253 5.48633 12.6891V12.3878C5.48633 11.936 5.73017 11.5129 6.13178 11.2906L7.13581 10.7384C7.50874 10.5304 7.96773 10.5304 8.34783 10.7384L14.4294 14.1019C14.8023 14.3099 15.2613 14.3099 15.6414 14.1019L18.3738 12.5887C18.632 12.4452 18.632 12.0723 18.3738 11.9289L12.2707 8.55817C12.0126 8.41474 12.0126 8.04181 12.2707 7.89838L14.3505 6.75091C14.7234 6.54293 15.1824 6.54293 15.5625 6.75091L23.8458 11.3264C24.2474 11.5488 24.4913 11.9647 24.4913 12.4237V20.8934L24.4984 20.9006Z" fill="currentColor"></path>
        </g>
    </g>
</svg>